<svg width="18" height="18" viewBox="0 0 18 18" fill="none" xmlns="http://www.w3.org/2000/svg">
<path id="Vector" fill-rule="evenodd" clip-rule="evenodd" d="M5.33329 10.547C5.83955 10.547 6.24996 10.1366 6.24996 9.63026C6.24996 9.12406 5.83955 8.71362 5.33329 8.71362C4.82703 8.71362 4.41663 9.12406 4.41663 9.63026C4.41663 10.1366 4.82703 10.547 5.33329 10.547ZM5.33329 14.2135C5.83955 14.2135 6.24996 13.8031 6.24996 13.2968C6.24996 12.7906 5.83955 12.3802 5.33329 12.3802C4.82703 12.3802 4.41663 12.7906 4.41663 13.2968C4.41663 13.8031 4.82703 14.2135 5.33329 14.2135ZM13.5833 9.63026C13.5833 10.1366 13.1729 10.547 12.6667 10.547C12.1604 10.547 11.75 10.1366 11.75 9.63026C11.75 9.12406 12.1604 8.71362 12.6667 8.71362C13.1729 8.71362 13.5833 9.12406 13.5833 9.63026ZM12.6667 14.2135C13.1729 14.2135 13.5833 13.8031 13.5833 13.2968C13.5833 12.7906 13.1729 12.3802 12.6667 12.3802C12.1604 12.3802 11.75 12.7906 11.75 13.2968C11.75 13.8031 12.1604 14.2135 12.6667 14.2135ZM9.9167 9.63026C9.9167 10.1366 9.5063 10.547 9 10.547C8.49378 10.547 8.08337 10.1366 8.08337 9.63026C8.08337 9.12406 8.49378 8.71362 9 8.71362C9.5063 8.71362 9.9167 9.12406 9.9167 9.63026ZM9 14.2135C9.5063 14.2135 9.9167 13.8031 9.9167 13.2968C9.9167 12.7906 9.5063 12.3802 9 12.3802C8.49378 12.3802 8.08337 12.7906 8.08337 13.2968C8.08337 13.8031 8.49378 14.2135 9 14.2135ZM5.33337 0C5.74759 0 6.08337 0.335791 6.08337 0.750001V0.938091C6.78234 0.916741 7.58204 0.916741 8.50078 0.916751H9.4992C10.418 0.916741 11.2177 0.916741 11.9166 0.938091V0.750001C11.9166 0.335791 12.2524 0 12.6666 0C13.0808 0 13.4166 0.335791 13.4166 0.750001V1.042C14.2602 1.14826 14.9718 1.35098 15.6029 1.75957C16.2249 2.16218 16.7546 2.69186 17.1572 3.3138C17.61 4.01338 17.81 4.81169 17.906 5.77903C18 6.7258 18 7.91183 18 9.41756V9.49926C18 11.005 18 12.1911 17.906 13.1378C17.81 14.1052 17.61 14.9035 17.1572 15.6031C16.7546 16.225 16.2249 16.7547 15.6029 17.1573C14.9034 17.6102 14.1051 17.8101 13.1377 17.9061C12.191 18.0001 11.005 18.0001 9.4993 18.0001H8.50073C6.99504 18.0001 5.80904 18.0001 4.86228 17.9061C3.89494 17.8101 3.09663 17.6102 2.39705 17.1573C1.77511 16.7547 1.24543 16.225 0.84283 15.6031C0.38996 14.9035 0.19 14.1052 0.0939701 13.1378C-1.29417e-05 12.1911 -6.87939e-06 11.0051 1.20611e-07 9.49926V9.41756C-6.87939e-06 7.91181 -1.29417e-05 6.7258 0.0939701 5.77903C0.19 4.81169 0.38996 4.01338 0.84283 3.3138C1.24543 2.69186 1.77511 2.16218 2.39705 1.75957C3.02824 1.35098 3.73981 1.14826 4.58337 1.042V0.750001C4.58337 0.335791 4.91916 0 5.33337 0ZM11.9166 2.43872V2.58333C11.9166 2.99755 12.2524 3.33333 12.6666 3.33333C13.0808 3.33333 13.4166 2.99755 13.4166 2.58333V2.55625C14.0273 2.64905 14.4458 2.79738 14.7878 3.01877C15.2321 3.30634 15.6104 3.68469 15.898 4.12893C16.1042 4.44754 16.2471 4.83258 16.3407 5.37754C16.0419 5.34499 15.6782 5.30921 15.2498 5.2735C13.8541 5.1572 11.7709 5.04175 9 5.04175C6.22914 5.04175 4.14586 5.1572 2.75021 5.2735C2.32176 5.30921 1.95813 5.34499 1.65932 5.37754C1.75292 4.83258 1.89577 4.44754 2.10202 4.12893C2.38959 3.68469 2.76794 3.30634 3.21218 3.01877C3.55417 2.79738 3.9727 2.64905 4.58337 2.55625V2.58333C4.58337 2.99755 4.91916 3.33333 5.33337 3.33333C5.74759 3.33333 6.08337 2.99755 6.08337 2.58333V2.43872C6.75961 2.41709 7.56273 2.41675 8.54167 2.41675H9.4583C10.4373 2.41675 11.2404 2.41709 11.9166 2.43872ZM16.4747 6.9024C16.1478 6.86363 15.6979 6.81605 15.1252 6.76832C13.7709 6.65546 11.7291 6.54175 9 6.54175C6.27086 6.54175 4.22914 6.65546 2.87478 6.76832C2.30206 6.81605 1.85222 6.86363 1.52528 6.90239C1.50038 7.59869 1.5 8.43189 1.5 9.45846C1.5 11.014 1.50086 12.1256 1.58663 12.9897C1.67121 13.8417 1.83246 14.3715 2.10202 14.7879C2.38959 15.2322 2.76794 15.6105 3.21218 15.8981C3.62858 16.1677 4.15844 16.3289 5.01046 16.4135C5.87449 16.4993 6.98611 16.5001 8.54167 16.5001H9.4583C11.0139 16.5001 12.1255 16.4993 12.9895 16.4135C13.8416 16.3289 14.3714 16.1677 14.7878 15.8981C15.2321 15.6105 15.6104 15.2322 15.898 14.7879C16.1675 14.3715 16.3288 13.8417 16.4134 12.9897C16.4991 12.1256 16.5 11.014 16.5 9.45846C16.5 8.43189 16.4996 7.59869 16.4747 6.9024Z" fill="#201F29"/>
</svg>
