<svg width="18" height="18" viewBox="0 0 18 18" fill="none" xmlns="http://www.w3.org/2000/svg">
<path id="Vector" d="M11.5629 9.96064L9.45 8.73984V4.5C9.45 4.25149 9.24851 4.05 9 4.05C8.75149 4.05 8.55 4.25149 8.55 4.5V9C8.55006 9.16068 8.6358 9.3091 8.775 9.38936L11.1129 10.7394C11.1812 10.7791 11.2588 10.8001 11.3379 10.8C11.4984 10.7999 11.6467 10.7143 11.727 10.5754C11.8514 10.3603 11.778 10.0851 11.5629 9.96064ZM9 0C4.02946 0 0 4.02946 0 9C0 13.9705 4.02946 18 9 18C13.9681 17.9942 17.9942 13.9681 18 9C18 4.02946 13.9705 0 9 0ZM9 17.1C4.52648 17.1 0.9 13.4735 0.9 9C0.9 4.52648 4.52648 0.9 9 0.9C13.4715 0.904889 17.0951 4.52851 17.1 9C17.1 13.4735 13.4735 17.1 9 17.1Z" fill="black"/>
</svg>
