<svg width="16" height="20" viewBox="0 0 16 20" fill="none" xmlns="http://www.w3.org/2000/svg">
<path id="Vector" fill-rule="evenodd" clip-rule="evenodd" d="M3.5361 2.92714C2.40832 3.91248 1.54839 5.66773 1.54839 8.83842C1.54839 13.1381 4.9027 16.4425 6.99546 18.0695C7.59949 18.5391 8.4005 18.5391 9.0045 18.0695C11.0973 16.4425 14.4516 13.1381 14.4516 8.83842C14.4516 5.66773 13.5917 3.91248 12.4639 2.92714C11.3132 1.92177 9.728 1.57829 8 1.57829C6.272 1.57829 4.6868 1.92177 3.5361 2.92714ZM2.52842 1.72881C4.08739 0.366743 6.1151 0 8 0C9.8849 0 11.9126 0.366743 13.4716 1.72881C15.0535 3.11091 16 5.38029 16 8.83842C16 13.9465 12.0772 17.6657 9.9436 19.3244C8.785 20.2252 7.21503 20.2252 6.05644 19.3244C3.92284 17.6657 0 13.9465 0 8.83842C0 5.38029 0.94652 3.11091 2.52842 1.72881ZM8 5.75C6.75736 5.75 5.75 6.75736 5.75 8C5.75 9.24264 6.75736 10.25 8 10.25C9.2426 10.25 10.25 9.24264 10.25 8C10.25 6.75736 9.2426 5.75 8 5.75ZM4.25 8C4.25 5.92893 5.92893 4.25 8 4.25C10.0711 4.25 11.75 5.92893 11.75 8C11.75 10.0711 10.0711 11.75 8 11.75C5.92893 11.75 4.25 10.0711 4.25 8Z" fill="#201F29"/>
</svg>
