<svg width="23" height="23" viewBox="0 0 23 23" fill="none" xmlns="http://www.w3.org/2000/svg">
<path id="Vector" fill-rule="evenodd" clip-rule="evenodd" d="M11.0124 21.0955H11.9876C14.1892 21.0955 15.7013 21.0933 16.8641 20.9798C17.9967 20.8693 18.5914 20.6677 19.0183 20.3968C19.5658 20.0494 20.0306 19.5876 20.3802 19.0435C20.6528 18.6193 20.8556 18.0283 20.9669 16.9028C21.0812 15.7475 21.0833 14.2449 21.0833 12.0572C21.0833 9.41685 21.0531 8.59835 20.785 7.90609C20.6346 7.51767 20.43 7.15216 20.1773 6.82029C19.7268 6.22882 19.043 5.77152 16.7855 4.37873L16.5553 4.23659C15.221 3.41342 14.3181 2.85815 13.5723 2.47924C12.8555 2.11504 12.4007 1.97684 11.996 1.93196C11.6664 1.89541 11.3336 1.89541 11.004 1.93196C10.5993 1.97684 10.1445 2.11504 9.42767 2.47924C8.68181 2.85815 7.77894 3.41342 6.44478 4.23659L6.21441 4.37873C3.95701 5.77152 3.27318 6.22882 2.82273 6.82029C2.56998 7.15216 2.36541 7.51767 2.215 7.90609C1.94694 8.59835 1.91667 9.41685 1.91667 12.0572C1.91667 14.2449 1.91883 15.7475 2.03305 16.9028C2.14432 18.0283 2.34712 18.6193 2.61982 19.0435C2.96947 19.5876 3.43418 20.0494 3.98163 20.3968C4.4086 20.6677 5.0033 20.8693 6.13593 20.9798C7.29869 21.0933 8.81078 21.0955 11.0124 21.0955ZM0.42619 7.22213C-3.80807e-08 8.32272 0 9.56755 0 12.0572C0 16.3563 -7.61615e-08 18.5059 1.0045 20.0687C1.50401 20.8458 2.16788 21.5055 2.94995 22.0018C4.52271 23 6.68596 23 11.0124 23H11.9876C16.314 23 18.4773 23 20.05 22.0018C20.8321 21.5055 21.4961 20.8458 21.9955 20.0687C23 18.5059 23 16.3563 23 12.0572C23 9.56755 23 8.32272 22.5739 7.22213C22.3589 6.66724 22.0667 6.14509 21.7056 5.671C20.9894 4.73065 19.9252 4.074 17.7966 2.7607L17.5662 2.61858C14.9512 1.00504 13.6435 0.198275 12.2085 0.0391623C11.7377 -0.0130541 11.2624 -0.0130541 10.7915 0.0391623C9.3565 0.198275 8.04891 1.00504 5.43374 2.61858L5.20337 2.7607C3.07481 4.074 2.01052 4.73065 1.29438 5.671C0.933314 6.14509 0.641061 6.66724 0.42619 7.22213ZM6.70833 16.7575C6.70833 16.2282 7.1374 15.7992 7.66667 15.7992H15.3333C15.8626 15.7992 16.2917 16.2282 16.2917 16.7575C16.2917 17.2868 15.8626 17.7159 15.3333 17.7159H7.66667C7.1374 17.7159 6.70833 17.2868 6.70833 16.7575Z" fill="#201F29"/>
</svg>
