<svg width="23" height="23" viewBox="0 0 23 23" fill="none" xmlns="http://www.w3.org/2000/svg">
<path id="Vector" fill-rule="evenodd" clip-rule="evenodd" d="M13.1755 1.79069C13.0035 1.77049 12.7689 1.76911 12.3546 1.76916L10.6447 1.76935C10.2304 1.7694 9.99584 1.77084 9.824 1.79108C9.74736 1.8001 9.7081 1.81056 9.6898 1.81672C9.67657 1.82118 9.67195 1.82463 9.67195 1.82463C9.66824 1.82729 9.66429 1.83019 9.65604 1.84093C9.64534 1.85485 9.62424 1.88618 9.59294 1.95175C9.52197 2.10042 9.44931 2.31143 9.3211 2.69198C9.28643 2.79487 9.25066 2.90205 9.21398 3.01317C8.91516 3.91842 8.24176 4.59272 7.49503 5.00748C6.77555 5.4071 5.90081 5.61363 5.01084 5.42357C4.85467 5.39022 4.70499 5.35888 4.56267 5.32957C4.15542 5.2457 3.9246 5.19963 3.75008 5.18478C3.61014 5.17288 3.57674 5.18864 3.56944 5.19208C3.56944 5.19208 3.53591 5.1994 3.4422 5.31957C3.33207 5.4608 3.20579 5.66654 2.98623 6.02905L2.23331 7.27212C2.01352 7.635 1.89019 7.84143 1.81752 8.00168C1.78509 8.07319 1.77448 8.11127 1.771 8.12755C1.77038 8.13037 1.76977 8.13398 1.76977 8.13398L1.77146 8.13803C1.77667 8.14984 1.79227 8.18071 1.83492 8.23855C1.93224 8.37047 2.08587 8.53429 2.36698 8.8298C2.46206 8.92976 2.56237 9.03449 2.6675 9.14338C3.30623 9.80488 3.56562 10.6812 3.56562 11.5001C3.56562 12.3187 3.30632 13.1944 2.66796 13.8556C2.56249 13.9647 2.46186 14.0698 2.3665 14.17C2.08536 14.4657 1.9317 14.6294 1.83437 14.7614C1.79171 14.8193 1.7761 14.8501 1.77089 14.862L1.76919 14.866C1.76919 14.866 1.76981 14.8696 1.77042 14.8725C1.77391 14.8887 1.78453 14.9269 1.81697 14.9984C1.88966 15.1586 2.01303 15.3651 2.23289 15.728L2.98592 16.971C3.20549 17.3334 3.33177 17.5391 3.44191 17.6803C3.53439 17.7988 3.5682 17.8073 3.5682 17.8073C3.57548 17.8108 3.60981 17.8269 3.74972 17.8151C3.92422 17.8002 4.15499 17.7542 4.56218 17.6703C4.70435 17.641 4.85384 17.6096 5.00983 17.5763C5.90008 17.3863 6.77509 17.5929 7.49477 17.9926C8.24163 18.4075 8.91518 19.082 9.21406 19.9874C9.25069 20.0984 9.28642 20.2055 9.32104 20.3083C9.44927 20.6889 9.52194 20.8998 9.59292 21.0486C9.62422 21.1141 9.64533 21.1455 9.65603 21.1594C9.66428 21.1702 9.66795 21.1728 9.67165 21.1755C9.67165 21.1755 9.67656 21.1791 9.68978 21.1836C9.70808 21.1898 9.74736 21.2002 9.824 21.2093C9.99588 21.2295 10.2305 21.2309 10.6449 21.2309H12.3546C12.7689 21.2309 13.0035 21.2295 13.1755 21.2093C13.2521 21.2002 13.2914 21.1898 13.3097 21.1836C13.3229 21.1791 13.3276 21.1757 13.3276 21.1757C13.3313 21.1731 13.3353 21.1702 13.3434 21.1594C13.3542 21.1455 13.3752 21.1141 13.4066 21.0486C13.4776 20.8998 13.5502 20.6889 13.6785 20.3083C13.713 20.2056 13.7487 20.0987 13.7853 19.9878C14.0843 19.0821 14.7581 18.4075 15.5052 17.9924C16.2251 17.5924 17.1005 17.3856 17.9912 17.5757C18.1467 17.609 18.2958 17.6403 18.4377 17.6694C18.44 17.6699 18.4424 17.6704 18.4448 17.6709C18.4485 17.6716 18.4522 17.6723 18.4558 17.6732C18.8518 17.7547 19.0782 17.7996 19.2501 17.8142C19.39 17.8261 19.4235 17.8103 19.4308 17.8068C19.4308 17.8068 19.4655 17.7979 19.558 17.6794C19.6682 17.5382 19.7944 17.3325 20.0139 16.9701L20.7671 15.7271C20.987 15.3642 21.1103 15.1577 21.183 14.9974C21.2154 14.926 21.226 14.8879 21.2295 14.8715C21.2301 14.8688 21.2308 14.8651 21.2308 14.8651L21.2291 14.8611C21.2239 14.8493 21.2083 14.8184 21.1656 14.7605C21.0682 14.6286 20.9146 14.4648 20.6335 14.1692C20.5378 14.0686 20.4368 13.9632 20.331 13.8536C19.693 13.193 19.4338 12.3179 19.4338 11.5001C19.4338 10.6816 19.6931 9.80586 20.3315 9.14473C20.4369 9.03557 20.5374 8.93056 20.6329 8.83035C20.914 8.53475 21.0677 8.37087 21.1651 8.2389C21.2078 8.18106 21.2234 8.15017 21.2285 8.13835L21.2303 8.13428C21.2303 8.13428 21.2296 8.13068 21.229 8.12784C21.2255 8.11155 21.2149 8.07346 21.1825 8.00193C21.1098 7.84165 20.9863 7.63518 20.7664 7.27226L20.0132 6.02934C19.7935 5.66698 19.6673 5.46131 19.5571 5.32015C19.4647 5.20165 19.4309 5.19314 19.4309 5.19314C19.4236 5.1897 19.3892 5.17353 19.2493 5.18543C19.0749 5.20028 18.8441 5.24635 18.437 5.33017C18.2949 5.35943 18.1456 5.39071 17.9897 5.424C17.0995 5.6141 16.2244 5.40747 15.5048 5.0077C14.7579 4.59283 14.0844 3.91839 13.7855 3.01297C13.7489 2.90186 13.7132 2.79469 13.6785 2.69181C13.5503 2.31115 13.4776 2.10008 13.4066 1.95138C13.3752 1.88579 13.3542 1.85445 13.3434 1.84053C13.3353 1.82979 13.3315 1.82709 13.3278 1.82443C13.3278 1.82443 13.323 1.82078 13.3097 1.81632C13.2914 1.81016 13.2522 1.79971 13.1755 1.79069ZM13.3819 0.0336501C13.7064 0.0717949 14.0428 0.159829 14.3596 0.387493C14.6727 0.612308 14.863 0.896152 15.0029 1.18914C15.1255 1.44612 15.2315 1.76093 15.3415 2.0875L15.3548 2.12691C15.3906 2.23312 15.4275 2.34372 15.4653 2.45837C15.5954 2.8524 15.9144 3.21154 16.3637 3.4611C16.7892 3.69749 17.2295 3.77731 17.6203 3.69386C17.7806 3.65964 17.9342 3.62747 18.0803 3.59738L18.1209 3.58901C18.4727 3.51652 18.8077 3.44749 19.0993 3.42266C19.4297 3.39454 19.7747 3.41477 20.1315 3.5687C20.4932 3.7248 20.7461 3.96831 20.9517 4.23183C21.1339 4.46542 21.3141 4.76285 21.5042 5.07656L22.3012 6.39178C22.491 6.70487 22.6716 7.00267 22.7932 7.27089C22.9299 7.57241 23.0314 7.91603 22.99 8.31577C22.949 8.71196 22.7843 9.02369 22.5885 9.28915C22.4172 9.52134 22.1842 9.76612 21.9441 10.0185L21.9144 10.0498C21.8161 10.1531 21.7125 10.2613 21.6039 10.3737C21.3505 10.6362 21.2027 11.0347 21.2027 11.5001C21.2027 11.9648 21.3502 12.3626 21.6032 12.6246C21.7122 12.7375 21.8164 12.8461 21.915 12.9498L21.9448 12.9811C22.1849 13.2335 22.4178 13.4781 22.589 13.7103C22.7848 13.9758 22.9496 14.2875 22.9906 14.6836C23.032 15.0833 22.9306 15.4268 22.7939 15.7284C22.6722 15.9965 22.4918 16.2943 22.3021 16.6073L21.5051 17.9227C21.3151 18.2364 21.1349 18.534 20.9526 18.7676C20.7471 19.0312 20.4943 19.2747 20.1324 19.4309C19.7756 19.5849 19.4306 19.6051 19.1002 19.577C18.8085 19.5522 18.4734 19.483 18.1217 19.4105L18.0628 19.3984C17.9225 19.3695 17.7751 19.3386 17.6219 19.3059C17.2307 19.2224 16.79 19.3023 16.3641 19.539C15.9144 19.7887 15.5951 20.1481 15.4649 20.5425C15.4272 20.6569 15.3904 20.7672 15.3547 20.8731L15.3415 20.9126C15.2315 21.239 15.1255 21.5539 15.0029 21.8108C14.863 22.1037 14.6727 22.3876 14.3598 22.6124C14.0429 22.8401 13.7066 22.9281 13.3821 22.9662C13.0944 23.0001 12.7539 23.0001 12.3962 23H10.6033C10.2456 23.0001 9.90508 23.0001 9.61736 22.9662C9.29287 22.9281 8.95661 22.8401 8.63972 22.6124C8.32679 22.3876 8.13649 22.1037 7.99665 21.8108C7.87399 21.5539 7.768 21.239 7.65806 20.9126L7.64478 20.8731C7.60903 20.7671 7.57216 20.6565 7.53436 20.542C7.40429 20.148 7.0852 19.7888 6.63592 19.5392C6.21036 19.3029 5.77008 19.223 5.37919 19.3066C5.21885 19.3408 5.06513 19.373 4.91891 19.403L4.87828 19.4114C4.52644 19.4839 4.19144 19.553 3.89973 19.5778C3.56928 19.6059 3.22429 19.5857 2.86748 19.4317C2.50567 19.2756 2.25281 19.032 2.04723 18.7685C1.86499 18.5348 1.68484 18.2374 1.49481 17.9236L0.697933 16.6083C0.508209 16.2952 0.327736 15.9975 0.206091 15.7292C0.0693438 15.4277 -0.0320479 15.0841 0.00936486 14.6844C0.050407 14.2883 0.215151 13.9766 0.410919 13.7111C0.582166 13.479 0.81508 13.2342 1.05525 12.9818L1.08497 12.9506C1.18326 12.8473 1.28692 12.7391 1.39557 12.6265C1.64901 12.3641 1.79676 11.9656 1.79676 11.5001C1.79676 11.0341 1.64887 10.6352 1.3951 10.3723C1.2868 10.2602 1.18345 10.1523 1.08544 10.0493C1.07553 10.0388 1.06563 10.0284 1.05572 10.018C0.815591 9.76567 0.582716 9.52094 0.411494 9.28881C0.215739 9.02342 0.0510076 8.71177 0.00995268 8.31566C-0.0314792 7.91601 0.0698804 7.57246 0.206577 7.27097C0.328183 7.00281 0.508605 6.70504 0.698265 6.39199C0.705625 6.37985 0.712998 6.36768 0.720383 6.35548L1.47331 5.1124C1.48056 5.10043 1.48779 5.08848 1.49501 5.07656C1.68503 4.76274 1.86518 4.46522 2.04742 4.23154C2.253 3.96792 2.50586 3.7243 2.86771 3.56813C3.22454 3.41413 3.56956 3.39389 3.90005 3.42201C4.19178 3.44684 4.52683 3.51589 4.87871 3.5884C4.89223 3.59118 4.90579 3.59398 4.91936 3.59677C4.91936 3.59677 4.91643 3.59376 4.95216 3.60484L4.98497 3.61291L4.91936 3.59677C5.06574 3.62692 5.21964 3.65914 5.38019 3.69342C5.77084 3.77685 6.2109 3.69709 6.63623 3.46083C7.08533 3.21139 7.40428 2.8524 7.53429 2.45854C7.57214 2.34387 7.60905 2.23326 7.64483 2.12705C7.64927 2.1139 7.65369 2.10077 7.65811 2.08765C7.76805 1.76117 7.87403 1.44643 7.99668 1.18951C8.13651 0.896588 8.32678 0.612804 8.63966 0.388006C8.95649 0.160359 9.29272 0.0722804 9.61717 0.034075C9.90483 0.000200845 10.2453 0.000209315 10.603 0.000217788C10.6168 0.000218999 10.6306 0.000218983 10.6445 0.000216562L12.3958 9.55503e-06C12.7536 -8.24449e-05 13.0941 -0.0001708 13.3819 0.0336501ZM11.5023 8.98654C10.037 8.98654 8.84905 10.1121 8.84905 11.5006C8.84905 12.8891 10.037 14.0146 11.5023 14.0146C12.9678 14.0146 14.1556 12.8891 14.1556 11.5006C14.1556 10.1121 12.9678 8.98654 11.5023 8.98654ZM7.08018 11.5006C7.08018 9.18647 9.06005 7.31051 11.5023 7.31051C13.9446 7.31051 15.9245 9.18647 15.9245 11.5006C15.9245 13.8146 13.9446 15.6907 11.5023 15.6907C9.06005 15.6907 7.08018 13.8146 7.08018 11.5006Z" fill="#201F29"/>
<path id="Vector" fill-rule="evenodd" clip-rule="evenodd" d="M13.1755 1.79069C13.0035 1.77049 12.7689 1.76911 12.3546 1.76916L10.6447 1.76935C10.2304 1.7694 9.99584 1.77084 9.824 1.79108C9.74736 1.8001 9.7081 1.81056 9.6898 1.81672C9.67657 1.82118 9.67195 1.82463 9.67195 1.82463C9.66824 1.82729 9.66429 1.83019 9.65604 1.84093C9.64534 1.85485 9.62423 1.88618 9.59294 1.95175C9.52197 2.10042 9.44931 2.31143 9.32109 2.69198C9.28643 2.79487 9.25066 2.90205 9.21398 3.01317C8.91516 3.91842 8.24176 4.59272 7.49503 5.00748C6.77555 5.4071 5.90081 5.61363 5.01084 5.42357C4.85467 5.39022 4.70499 5.35888 4.56267 5.32957C4.15542 5.2457 3.9246 5.19963 3.75008 5.18478C3.61014 5.17288 3.57674 5.18864 3.56944 5.19208C3.56944 5.19208 3.53591 5.1994 3.4422 5.31957C3.33207 5.4608 3.20579 5.66654 2.98623 6.02905L2.23331 7.27212C2.01352 7.635 1.89019 7.84143 1.81752 8.00168C1.78509 8.07319 1.77448 8.11127 1.771 8.12755C1.77038 8.13037 1.76977 8.13398 1.76977 8.13398L1.77146 8.13803C1.77667 8.14984 1.79227 8.18071 1.83492 8.23855C1.93224 8.37047 2.08587 8.53429 2.36698 8.8298C2.46206 8.92976 2.56237 9.03449 2.6675 9.14338C3.30623 9.80488 3.56562 10.6812 3.56562 11.5001C3.56562 12.3187 3.30632 13.1944 2.66796 13.8556C2.56249 13.9647 2.46186 14.0698 2.3665 14.17C2.08536 14.4657 1.9317 14.6294 1.83437 14.7614C1.79171 14.8193 1.77609 14.8501 1.77089 14.862L1.76919 14.866C1.76919 14.866 1.76981 14.8696 1.77042 14.8725C1.77391 14.8887 1.78453 14.9269 1.81697 14.9984C1.88966 15.1586 2.01303 15.3651 2.23289 15.728L2.98592 16.971C3.20549 17.3334 3.33177 17.5391 3.44191 17.6803C3.53439 17.7988 3.5682 17.8073 3.5682 17.8073C3.57548 17.8108 3.60981 17.8269 3.74972 17.8151C3.92422 17.8002 4.15499 17.7542 4.56218 17.6703C4.70435 17.641 4.85384 17.6096 5.00983 17.5763C5.90008 17.3863 6.77509 17.5929 7.49477 17.9926C8.24163 18.4075 8.91518 19.082 9.21406 19.9874C9.25069 20.0984 9.28642 20.2055 9.32104 20.3083C9.44927 20.6889 9.52194 20.8998 9.59292 21.0486C9.62422 21.1141 9.64533 21.1455 9.65602 21.1594C9.66428 21.1702 9.66795 21.1728 9.67165 21.1755C9.67165 21.1755 9.67656 21.1791 9.68978 21.1836C9.70808 21.1898 9.74736 21.2002 9.824 21.2093C9.99588 21.2295 10.2305 21.2309 10.6449 21.2309H12.3546C12.7689 21.2309 13.0035 21.2295 13.1755 21.2093C13.2521 21.2002 13.2914 21.1898 13.3097 21.1836C13.3229 21.1791 13.3276 21.1757 13.3276 21.1757C13.3313 21.1731 13.3353 21.1702 13.3434 21.1594C13.3542 21.1455 13.3752 21.1141 13.4066 21.0486C13.4776 20.8998 13.5502 20.6889 13.6785 20.3083C13.713 20.2056 13.7487 20.0987 13.7853 19.9878C14.0843 19.0821 14.7581 18.4075 15.5052 17.9924C16.2251 17.5924 17.1005 17.3856 17.9912 17.5757C18.1467 17.609 18.2958 17.6403 18.4377 17.6694C18.44 17.6699 18.4424 17.6704 18.4448 17.6709C18.4485 17.6716 18.4522 17.6723 18.4558 17.6732C18.8518 17.7547 19.0782 17.7996 19.2501 17.8142C19.39 17.8261 19.4235 17.8103 19.4308 17.8068C19.4308 17.8068 19.4655 17.7979 19.558 17.6794C19.6682 17.5382 19.7944 17.3325 20.0139 16.9701L20.7671 15.7271C20.987 15.3642 21.1103 15.1577 21.183 14.9974C21.2154 14.926 21.226 14.8879 21.2295 14.8715C21.2301 14.8688 21.2308 14.8651 21.2308 14.8651L21.2291 14.8611C21.2239 14.8493 21.2083 14.8184 21.1656 14.7605C21.0682 14.6286 20.9146 14.4648 20.6335 14.1692C20.5378 14.0686 20.4368 13.9632 20.3309 13.8536C19.693 13.193 19.4338 12.3179 19.4338 11.5001C19.4338 10.6816 19.6931 9.80586 20.3315 9.14473C20.4369 9.03557 20.5374 8.93056 20.6329 8.83035C20.914 8.53475 21.0677 8.37087 21.1651 8.2389C21.2078 8.18106 21.2234 8.15017 21.2285 8.13835L21.2302 8.13428C21.2302 8.13428 21.2296 8.13068 21.229 8.12784C21.2255 8.11155 21.2149 8.07346 21.1825 8.00193C21.1098 7.84165 20.9863 7.63519 20.7664 7.27226L20.0132 6.02934C19.7935 5.66698 19.6673 5.46131 19.5571 5.32015C19.4647 5.20165 19.4309 5.19314 19.4309 5.19314C19.4236 5.1897 19.3892 5.17353 19.2493 5.18543C19.0749 5.20028 18.8441 5.24635 18.437 5.33017C18.2949 5.35943 18.1456 5.39071 17.9897 5.424C17.0995 5.6141 16.2244 5.40747 15.5048 5.0077C14.7579 4.59283 14.0844 3.91839 13.7855 3.01297C13.7489 2.90186 13.7132 2.79469 13.6785 2.69181C13.5503 2.31115 13.4776 2.10008 13.4066 1.95138C13.3752 1.88579 13.3542 1.85445 13.3434 1.84053C13.3353 1.82979 13.3315 1.82709 13.3278 1.82443C13.3278 1.82443 13.323 1.82078 13.3097 1.81632C13.2914 1.81016 13.2522 1.79971 13.1755 1.79069ZM13.3819 0.0336501C13.7064 0.0717949 14.0428 0.159829 14.3596 0.387493C14.6727 0.612308 14.863 0.896152 15.0029 1.18914C15.1255 1.44612 15.2315 1.76093 15.3415 2.0875L15.3548 2.12691C15.3906 2.23312 15.4275 2.34372 15.4653 2.45837C15.5954 2.8524 15.9144 3.21154 16.3637 3.4611C16.7892 3.69749 17.2295 3.77731 17.6203 3.69386C17.7806 3.65964 17.9342 3.62747 18.0803 3.59738L18.1209 3.58901C18.4727 3.51652 18.8077 3.44749 19.0993 3.42266C19.4297 3.39454 19.7747 3.41477 20.1315 3.5687C20.4932 3.7248 20.7461 3.96831 20.9517 4.23183C21.1339 4.46542 21.3141 4.76285 21.5042 5.07656L22.3012 6.39178C22.491 6.70487 22.6716 7.00267 22.7932 7.27089C22.9299 7.57241 23.0314 7.91603 22.99 8.31577C22.949 8.71196 22.7843 9.02369 22.5885 9.28915C22.4172 9.52134 22.1842 9.76612 21.9441 10.0185L21.9144 10.0498C21.8161 10.1531 21.7125 10.2613 21.6039 10.3737C21.3505 10.6362 21.2027 11.0347 21.2027 11.5001C21.2027 11.9648 21.3502 12.3626 21.6032 12.6246C21.7122 12.7375 21.8164 12.8461 21.915 12.9498L21.9448 12.9811C22.1849 13.2335 22.4178 13.4781 22.589 13.7103C22.7848 13.9758 22.9496 14.2875 22.9906 14.6836C23.032 15.0833 22.9306 15.4268 22.7939 15.7284C22.6722 15.9965 22.4918 16.2943 22.302 16.6073L21.5051 17.9227C21.3151 18.2364 21.1349 18.534 20.9526 18.7676C20.7471 19.0312 20.4942 19.2747 20.1324 19.4309C19.7756 19.5849 19.4306 19.6051 19.1002 19.577C18.8085 19.5522 18.4734 19.483 18.1217 19.4105L18.0628 19.3984C17.9225 19.3695 17.7751 19.3386 17.6219 19.3059C17.2307 19.2224 16.79 19.3023 16.3641 19.539C15.9144 19.7887 15.5951 20.1481 15.4649 20.5425C15.4272 20.6569 15.3904 20.7672 15.3547 20.8731L15.3415 20.9126C15.2315 21.239 15.1255 21.5539 15.0029 21.8108C14.863 22.1037 14.6727 22.3876 14.3598 22.6124C14.0429 22.8401 13.7066 22.9281 13.3821 22.9662C13.0944 23.0001 12.7539 23.0001 12.3962 23H10.6033C10.2456 23.0001 9.90508 23.0001 9.61736 22.9662C9.29287 22.9281 8.95661 22.8401 8.63972 22.6124C8.32679 22.3876 8.13649 22.1037 7.99665 21.8108C7.87399 21.5539 7.768 21.239 7.65806 20.9126L7.64478 20.8731C7.60903 20.767 7.57216 20.6565 7.53435 20.542C7.40429 20.148 7.0852 19.7888 6.63592 19.5392C6.21036 19.3029 5.77008 19.223 5.37919 19.3066C5.21885 19.3408 5.06513 19.373 4.91891 19.403L4.87828 19.4114C4.52644 19.4839 4.19144 19.553 3.89973 19.5778C3.56927 19.6059 3.22429 19.5857 2.86748 19.4317C2.50567 19.2756 2.25281 19.032 2.04723 18.7685C1.86499 18.5348 1.68484 18.2374 1.49481 17.9236L0.697933 16.6083C0.508209 16.2952 0.327736 15.9975 0.206091 15.7292C0.0693438 15.4277 -0.0320479 15.0841 0.00936486 14.6844C0.050407 14.2883 0.215151 13.9766 0.410919 13.7111C0.582166 13.479 0.81508 13.2342 1.05525 12.9818L1.08497 12.9506C1.18326 12.8473 1.28692 12.7391 1.39557 12.6265C1.64901 12.3641 1.79676 11.9656 1.79676 11.5001C1.79676 11.0341 1.64887 10.6352 1.3951 10.3723C1.2868 10.2602 1.18345 10.1523 1.08544 10.0493C1.07553 10.0388 1.06563 10.0284 1.05572 10.018C0.815591 9.76567 0.582716 9.52094 0.411494 9.28881C0.215739 9.02342 0.0510076 8.71177 0.00995268 8.31566C-0.0314792 7.91601 0.0698804 7.57246 0.206577 7.27097C0.328183 7.00281 0.508605 6.70504 0.698265 6.39199C0.705625 6.37985 0.712998 6.36768 0.720383 6.35548L1.47331 5.1124C1.48056 5.10043 1.48779 5.08848 1.49501 5.07656C1.68503 4.76274 1.86518 4.46522 2.04742 4.23154C2.253 3.96792 2.50586 3.7243 2.86771 3.56813C3.22454 3.41413 3.56956 3.39389 3.90005 3.42201C4.19178 3.44684 4.52683 3.51589 4.87871 3.5884C4.89223 3.59118 4.90579 3.59398 4.91936 3.59677C4.91936 3.59677 4.91643 3.59376 4.95216 3.60484L4.98497 3.61291L4.91936 3.59677C5.06574 3.62692 5.21964 3.65914 5.38019 3.69342C5.77084 3.77685 6.2109 3.69709 6.63623 3.46083C7.08533 3.21139 7.40428 2.8524 7.53429 2.45854C7.57214 2.34387 7.60905 2.23326 7.64483 2.12705C7.64927 2.1139 7.65369 2.10077 7.65811 2.08765C7.76805 1.76117 7.87403 1.44643 7.99668 1.18951C8.13651 0.896588 8.32678 0.612804 8.63966 0.388006C8.95649 0.160359 9.29272 0.0722804 9.61717 0.034075C9.90483 0.000200845 10.2453 0.000209315 10.603 0.000217788C10.6168 0.000218999 10.6306 0.000218983 10.6445 0.000216562L12.3958 9.55503e-06C12.7536 -8.24449e-05 13.0941 -0.000170801 13.3819 0.0336501ZM11.5023 8.98654C10.037 8.98654 8.84905 10.1121 8.84905 11.5006C8.84905 12.8891 10.037 14.0146 11.5023 14.0146C12.9678 14.0146 14.1556 12.8891 14.1556 11.5006C14.1556 10.1121 12.9678 8.98654 11.5023 8.98654ZM7.08018 11.5006C7.08018 9.18647 9.06004 7.31051 11.5023 7.31051C13.9446 7.31051 15.9245 9.18647 15.9245 11.5006C15.9245 13.8146 13.9446 15.6907 11.5023 15.6907C9.06004 15.6907 7.08018 13.8146 7.08018 11.5006Z" fill="#201F29"/>
</svg>
