<svg width="29" height="29" viewBox="0 0 29 29" fill="none" xmlns="http://www.w3.org/2000/svg">
<path id="Vector" fill-rule="evenodd" clip-rule="evenodd" d="M14.5 2.23078C7.72389 2.23078 2.23078 7.72389 2.23078 14.5C2.23078 21.2762 7.72389 26.7693 14.5 26.7693C21.2762 26.7693 26.7693 21.2762 26.7693 14.5C26.7693 7.72389 21.2762 2.23078 14.5 2.23078ZM0 14.5C0 6.49188 6.49188 0 14.5 0C22.5082 0 29 6.49188 29 14.5C29 22.5082 22.5082 29 14.5 29C6.49188 29 0 22.5082 0 14.5ZM14.0974 8.05962C10.7628 8.05962 8.05962 10.7628 8.05962 14.0974C8.05962 17.4321 10.7628 20.1352 14.0974 20.1352C15.3281 20.1352 16.4726 19.767 17.4272 19.1348L18.879 20.5868C19.3506 21.0583 20.115 21.0583 20.5868 20.5868C21.0583 20.115 21.0583 19.3506 20.5868 18.879L19.1348 17.4272C19.767 16.4726 20.1352 15.3281 20.1352 14.0974C20.1352 10.7628 17.4321 8.05962 14.0974 8.05962ZM10.4747 14.0974C10.4747 12.0967 12.0967 10.4747 14.0974 10.4747C16.0982 10.4747 17.7201 12.0967 17.7201 14.0974C17.7201 16.0982 16.0982 17.7201 14.0974 17.7201C12.0967 17.7201 10.4747 16.0982 10.4747 14.0974Z" fill="#201F29"/>
</svg>
