<svg width="23" height="23" viewBox="0 0 23 23" fill="none" xmlns="http://www.w3.org/2000/svg">
<path id="Vector" fill-rule="evenodd" clip-rule="evenodd" d="M19.7961 7.91827C19.4212 7.53766 18.8094 7.53333 18.4293 7.90863C18.0493 8.28391 18.045 8.89669 18.4197 9.27732L19.7234 10.6015L11.1877 10.6016C10.654 10.6016 10.2213 11.0349 10.2213 11.5694C10.2213 12.104 10.654 12.5373 11.1878 12.5373L19.6765 12.5372L18.4294 13.7683C18.0493 14.1436 18.045 14.7563 18.4196 15.1369C18.7943 15.5176 19.4063 15.522 19.7864 15.1468L22.712 12.2585C22.8946 12.0783 22.9982 11.8328 23 11.5761C23.0018 11.3194 22.9017 11.0725 22.7217 10.8897L19.7961 7.91827ZM11.3258 1.9193C12.5614 1.9193 12.9804 1.92847 13.2983 2.01873C14.1726 2.26695 14.856 2.95129 15.1039 3.82687C15.1935 4.14306 15.2031 4.55907 15.2032 5.77633C15.2032 5.78494 15.2032 5.79358 15.2032 5.80226C15.219 6.31837 15.6422 6.73188 16.1614 6.73188C16.6807 6.73188 17.1034 6.31837 17.1192 5.80226L17.1197 5.64986C17.1202 4.62571 17.1204 3.91342 16.9477 3.30345C16.5185 1.78719 15.3352 0.6021 13.821 0.172269C13.2119 -0.000643164 12.5007 -0.00036453 11.478 3.79698e-05L8.5541 7.62028e-05C6.80678 5.06473e-05 5.39839 2.51237e-05 4.29071 0.149167C3.14067 0.304008 2.17236 0.635259 1.40332 1.4054C0.634274 2.17554 0.3035 3.14522 0.148878 4.2969C-4.52929e-05 5.40615 -2.48865e-05 6.81655 6.66773e-07 8.56634V14.4336C-2.48865e-05 16.1834 -4.52929e-05 17.5938 0.148878 18.7031C0.3035 19.8547 0.634274 20.8244 1.40332 21.5945C2.17236 22.3647 3.14067 22.696 4.29071 22.8509C5.3984 23 6.8068 23 8.55411 22.9998L11.4867 23C12.5013 23.0003 13.207 23.0006 13.8116 22.8304C15.3334 22.402 16.5226 21.211 16.9504 19.6869C17.1204 19.0815 17.1202 18.3749 17.1197 17.3588V17.2077V17.2027C17.1197 16.6727 16.6906 16.2431 16.1614 16.2431C15.6322 16.2431 15.2032 16.6727 15.2032 17.2027V17.2077C15.2032 18.4351 15.1942 18.8515 15.1054 19.1675C14.8585 20.0477 14.1716 20.7354 13.2928 20.9827C12.9772 21.0717 12.5615 21.0806 11.3357 21.0806H8.62422C6.79024 21.0806 5.51116 21.0786 4.54608 20.9488C3.60855 20.8225 3.11209 20.5916 2.75849 20.2374C2.40487 19.8833 2.17433 19.3862 2.04829 18.4474C1.91853 17.4809 1.9165 16.2 1.9165 14.3634V8.63659C1.9165 6.8 1.91853 5.51908 2.04829 4.55263C2.17433 3.61378 2.40487 3.11661 2.75849 2.76249C3.11209 2.40838 3.60855 2.1775 4.54608 2.05128C5.51116 1.92134 6.79024 1.9193 8.62422 1.9193H11.3258Z" fill="#201F29"/>
</svg>
