<svg width="23" height="23" viewBox="0 0 23 23" fill="none" xmlns="http://www.w3.org/2000/svg">
<path id="Vector" fill-rule="evenodd" clip-rule="evenodd" d="M17.4842 13.5553C15.0833 13.5553 13.1368 15.5337 13.1368 17.974C13.1368 20.4144 15.0833 22.3927 17.4842 22.3927C18.3476 22.3927 19.1522 22.1369 19.8287 21.6958L20.8108 22.694C21.1746 23.0638 21.7644 23.0638 22.1283 22.694C22.4921 22.3242 22.4921 21.7246 22.1283 21.3549L21.1461 20.3567C21.58 19.6692 21.8317 18.8514 21.8317 17.974C21.8317 15.5337 19.8853 13.5553 17.4842 13.5553ZM15.0001 17.974C15.0001 16.5795 16.1123 15.4491 17.4842 15.4491C18.8563 15.4491 19.9685 16.5795 19.9685 17.974C19.9685 19.3686 18.8563 20.499 17.4842 20.499C16.1123 20.499 15.0001 19.3686 15.0001 17.974ZM7.76442 0.841583C7.70083 0.366301 7.29994 0 6.81486 0C6.28559 0 5.85653 0.436093 5.85653 0.974037V0.976261C4.77865 1.11426 3.86942 1.37755 3.0629 1.9082C2.2682 2.43106 1.59138 3.11897 1.07695 3.92669C0.498282 4.83524 0.242778 5.87203 0.120073 7.12833C-1.77742e-05 8.35791 -1.00342e-05 9.8982 1.87986e-07 11.8537V11.9599C-1.00342e-05 13.9154 -1.77742e-05 15.4557 0.120073 16.6852C0.242778 17.9415 0.498282 18.9783 1.07695 19.8869C1.59138 20.6946 2.2682 21.3826 3.0629 21.9055C3.95681 22.4936 4.97687 22.7533 6.21291 22.878C7.42266 23 8.93811 23 10.862 23H11.5C12.0293 23 12.4583 22.5639 12.4583 22.0259C12.4583 21.488 12.0293 21.0519 11.5 21.0519H10.9144C8.9267 21.0519 7.50629 21.0508 6.40225 20.9395C5.31356 20.8296 4.63652 20.6201 4.10445 20.27C3.53681 19.8967 3.05337 19.4052 2.68591 18.8283C2.34148 18.2876 2.13544 17.5993 2.02736 16.4928C1.91777 15.3708 1.91667 13.927 1.91667 11.9068C1.91667 10.9518 1.91691 10.1257 1.92875 9.40139C2.34811 9.35061 2.92964 9.28782 3.67333 9.22484C5.4039 9.07825 8.01277 8.93058 11.5 8.93058C14.9872 8.93058 17.5962 9.07825 19.3266 9.22484C20.0764 9.28835 20.6614 9.35165 21.0815 9.40266C21.0833 9.76704 21.0833 10.1647 21.0833 10.6012V12.3447C21.0833 12.8827 21.5124 13.3188 22.0417 13.3188C22.5709 13.3188 23 12.8827 23 12.3447V10.5647C23 10.5435 23 10.5223 23 10.5012C23 10.4775 23 10.4538 23 10.4303C23 9.14103 22.9981 8.11738 22.9412 7.28438C22.8813 6.40597 22.7571 5.66748 22.4729 4.98268C21.7931 3.34407 20.5104 2.04025 18.8981 1.34931C18.3606 1.11898 17.7897 0.99199 17.142 0.919131C17.1139 0.40673 16.6963 0 16.1851 0C15.7068 0 15.3105 0.356066 15.2385 0.821598C14.6943 0.813599 14.0871 0.813599 13.4061 0.813599H10.8621C9.68432 0.813599 8.65961 0.813587 7.76442 0.841583ZM15.2268 2.97771V2.7697C14.6973 2.76183 14.0871 2.76167 13.3702 2.76167H10.9144C9.66349 2.76167 8.63728 2.76212 7.7732 2.79021V2.97771C7.7732 3.51565 7.34414 3.95175 6.81486 3.95175C6.28559 3.95175 5.85653 3.51565 5.85653 2.97771V2.94285C5.07623 3.06337 4.54144 3.25601 4.10445 3.54352C3.53681 3.917 3.05337 4.40837 2.68591 4.98531C2.34148 5.52609 2.13544 6.21423 2.02736 7.32076C2.02383 7.35688 2.02042 7.39334 2.01711 7.43014C2.41739 7.38487 2.91641 7.33411 3.51416 7.28349C5.29749 7.13244 7.95946 6.98251 11.5 6.98251C15.0406 6.98251 17.7025 7.13244 19.4859 7.28349C20.1074 7.33613 20.6222 7.38892 21.0303 7.43553L21.0292 7.4191C20.9761 6.64157 20.8745 6.14373 20.7069 5.73959C20.2212 4.56915 19.305 3.63786 18.1534 3.14432C17.8801 3.02718 17.5633 2.94178 17.1434 2.88232V2.97771C17.1434 3.51565 16.7144 3.95175 16.1851 3.95175C15.6558 3.95175 15.2268 3.51565 15.2268 2.97771Z" fill="#201F29"/>
</svg>
